<mxfile host="app.diagrams.net" modified="2023-05-08T08:06:10.690Z" agent="5.0 (Windows NT 10.0; Win64; x64) AppleWebKit/537.36 (KHTML, like Gecko) Chrome/112.0.0.0 Safari/537.36" etag="UqqlKydvbEl-vdEEldB_" version="20.8.11" type="github">
  <diagram name="Page-1" id="e3a06f82-3646-2815-327d-82caf3d4e204">
    <mxGraphModel dx="1434" dy="756" grid="1" gridSize="10" guides="1" tooltips="1" connect="1" arrows="1" fold="1" page="1" pageScale="1.5" pageWidth="1169" pageHeight="826" background="none" math="0" shadow="0">
      <root>
        <mxCell id="0" style=";html=1;" />
        <mxCell id="1" style=";html=1;" parent="0" />
        <mxCell id="6a7d8f32e03d9370-60" value="" style="whiteSpace=wrap;html=1;fillColor=#d5e8d4;fontSize=14;strokeColor=none;verticalAlign=top;" parent="1" vertex="1">
          <mxGeometry x="898.25" y="860.75" width="160" height="244" as="geometry" />
        </mxCell>
        <mxCell id="6a7d8f32e03d9370-58" value="" style="whiteSpace=wrap;html=1;fillColor=#dae8fc;fontSize=14;strokeColor=none;verticalAlign=top;" parent="1" vertex="1">
          <mxGeometry x="540" y="860" width="170" height="240" as="geometry" />
        </mxCell>
        <mxCell id="6a7d8f32e03d9370-1" value="" style="verticalLabelPosition=bottom;aspect=fixed;html=1;verticalAlign=top;strokeColor=none;shape=mxgraph.citrix.laptop_2;fillColor=#66B2FF;gradientColor=#0066CC;fontSize=14;" parent="1" vertex="1">
          <mxGeometry x="560.4999999999999" y="924.75" width="116" height="86.5" as="geometry" />
        </mxCell>
        <mxCell id="6a7d8f32e03d9370-25" value="" style="verticalLabelPosition=bottom;aspect=fixed;html=1;verticalAlign=top;strokeColor=none;shape=mxgraph.citrix.proxy_server;fillColor=#66B2FF;gradientColor=#0066CC;fontSize=14;" parent="1" vertex="1">
          <mxGeometry x="940" y="937.75" width="76.5" height="90" as="geometry" />
        </mxCell>
        <mxCell id="lf8qCVuUsni2WL6netFp-6" value="" style="shape=singleArrow;whiteSpace=wrap;html=1;fontFamily=Helvetica;fontSize=11;fontColor=default;strokeColor=#000000;fillColor=#FFB570;" vertex="1" parent="1">
          <mxGeometry x="710" y="877.75" width="190" height="60" as="geometry" />
        </mxCell>
        <mxCell id="lf8qCVuUsni2WL6netFp-7" value="" style="shape=singleArrow;direction=west;whiteSpace=wrap;html=1;fontFamily=Helvetica;fontSize=11;fontColor=default;fillColor=#FFB570;" vertex="1" parent="1">
          <mxGeometry x="710" y="1020" width="190" height="60" as="geometry" />
        </mxCell>
        <mxCell id="lf8qCVuUsni2WL6netFp-9" value="&lt;font style=&quot;font-size: 20px;&quot;&gt;&lt;b&gt;Request&lt;/b&gt;&lt;/font&gt;" style="text;html=1;strokeColor=none;fillColor=none;align=center;verticalAlign=middle;whiteSpace=wrap;rounded=0;fontSize=11;fontFamily=Helvetica;fontColor=default;strokeWidth=3;" vertex="1" parent="1">
          <mxGeometry x="720" y="870" width="130" height="30" as="geometry" />
        </mxCell>
        <mxCell id="lf8qCVuUsni2WL6netFp-10" value="&lt;font style=&quot;font-size: 18px;&quot;&gt;&lt;b&gt;HTML Page&lt;/b&gt;&lt;/font&gt;" style="text;html=1;strokeColor=none;fillColor=none;align=center;verticalAlign=middle;whiteSpace=wrap;rounded=0;fontSize=11;fontFamily=Helvetica;fontColor=default;" vertex="1" parent="1">
          <mxGeometry x="760" y="1011.25" width="130" height="30" as="geometry" />
        </mxCell>
      </root>
    </mxGraphModel>
  </diagram>
</mxfile>
